HIERARCHY
ROOT Hips
{
  OFFSET -102.467 93.6631 130.069
  CHANNELS 6 Xposition Yposition Zposition Zrotation Xrotation Yrotation
  JOINT LeftUpLeg
  {
    OFFSET 8.64259 1.95398 -2.38835
    CHANNELS 3 Zrotation Xrotation Yrotation
    JOINT LeftLeg
    {
      OFFSET 43.7702 0 0
      CHANNELS 3 Zrotation Xrotation Yrotation
      JOINT LeftFoot
      {
        OFFSET 40.6238 0 0
        CHANNELS 3 Zrotation Xrotation Yrotation
        JOINT LeftToeBase
        {
          OFFSET 12.7242 0 0
          CHANNELS 3 Zrotation Xrotation Yrotation
          End Site
          {
            OFFSET 0 0 0
          }
        }
      }
    }
  }
  JOINT RightUpLeg
  {
    OFFSET -8.2249 1.95398 -2.59336
    CHANNELS 3 Zrotation Xrotation Yrotation
    JOINT RightLeg
    {
      OFFSET 43.5653 0 0
      CHANNELS 3 Zrotation Xrotation Yrotation
      JOINT RightFoot
      {
        OFFSET 40.6238 0 0
        CHANNELS 3 Zrotation Xrotation Yrotation
        JOINT RightToeBase
        {
          OFFSET 12.7242 0 0
          CHANNELS 3 Zrotation Xrotation Yrotation
          End Site
          {
            OFFSET 0 0 0
          }
        }
      }
    }
  }
  JOINT Spine
  {
    OFFSET 0.165834 0.87714 6.61349
    CHANNELS 3 Zrotation Xrotation Yrotation
    JOINT Spine1
    {
      OFFSET 7.38963 1.71661e-005 0
      CHANNELS 3 Zrotation Xrotation Yrotation
      JOINT Spine2
      {
        OFFSET 11.9445 1.14441e-005 0
        CHANNELS 3 Zrotation Xrotation Yrotation
        JOINT Spine3
        {
          OFFSET 14.7254 4.19617e-005 0
          CHANNELS 3 Zrotation Xrotation Yrotation
          JOINT Spine4
          {
            OFFSET 10.9679 0 0
            CHANNELS 3 Zrotation Xrotation Yrotation
            JOINT RightShoulder
            {
              OFFSET 2.46616 -1.6653 3.69651
              CHANNELS 3 Zrotation Xrotation Yrotation
              JOINT RightArm
              {
                OFFSET 13.0012 0 0
                CHANNELS 3 Zrotation Xrotation Yrotation
                JOINT RightForeArm
                {
                  OFFSET 28.7848 1.52588e-005 0
                  CHANNELS 3 Zrotation Xrotation Yrotation
                  JOINT RightHand
                  {
                    OFFSET 26.5688 1.52588e-005 0
                    CHANNELS 3 Zrotation Xrotation Yrotation
                    End Site
                    {
                      OFFSET 0 0 0
                    }
                  }
                }
              }
            }
            JOINT LeftShoulder
            {
              OFFSET 2.38034 -1.29275 -3.7523
              CHANNELS 3 Zrotation Xrotation Yrotation
              JOINT LeftArm
              {
                OFFSET 16.3182 6.10351e-005 0
                CHANNELS 3 Zrotation Xrotation Yrotation
                JOINT LeftForeArm
                {
                  OFFSET 27.0901 0 0
                  CHANNELS 3 Zrotation Xrotation Yrotation
                  JOINT LeftHand
                  {
                    OFFSET 24.5451 1.52588e-005 0
                    CHANNELS 3 Zrotation Xrotation Yrotation
                    End Site
                    {
                      OFFSET 0 0 0
                    }
                  }
                }
              }
            }
            JOINT Neck
            {
              OFFSET 5.0226 -0.0266342 0
              CHANNELS 3 Zrotation Xrotation Yrotation
              JOINT Head
              {
                OFFSET 6.69363 2.86102e-005 0
                CHANNELS 3 Zrotation Xrotation Yrotation
                End Site
                {
                  OFFSET 0 0 0
                }
              }
            }
          }
        }
      }
    }
  }
}
MOTION
Frames:	18
Frame Time:	0.0416667
-78.2901 89.1984 81.9869 89.9321 47.8145 92.0188 -175.319 37.7599 89.6614 -26.6288 14.4613 -2.33114 48.9015 -5.70904 7.8615 38.1503 -1.08475 0.0459085 171.742 7.67791 88.4867 -61.1061 -8.42315 -0.417746 51.9239 6.61035 9.04933 45.1608 -3.95581 0.121605 -0.121158 9.176 -89.4472 8.52057 0.00270496 1.09309 -3.15084 0.0508022 1.09191 -25.6825 -0.325928 1.04338 -5.6699 -0.325937 1.04337 97.1362 -57.9177 -89.3023 18.0782 -27.0034 -4.31279 -1.10611 -4.53997 -23.3315 -6.81266 -0.226594 -1.41137 -86.6072 -53.4539 84.0951 -17.2492 3.79408 -11.1699 0.573025 12.7007 -7.06661 1.16533 -0.277635 -10.4229 13.2054 1.18029 -4.12909 -17.0486 1.663 4.75296 
-75.3825 89.6977 77.9672 83.6528 50.6656 97.1016 -174.057 41.4081 88.3112 -32.1466 16.629 -3.33345 53.5352 -2.32275 8.08112 41.462 -1.45223 0.191007 170.019 27.7193 90.0976 -74.2806 -9.65857 -0.105292 56.1856 6.44746 14.0005 43.7082 -2.0761 5.03205 -0.200433 10.3587 -89.6376 6.16 -0.247146 0.716764 -5.5111 -0.215366 0.726935 -28.0455 -0.451164 0.609343 -8.03286 -0.451157 0.609338 97.3361 -57.9267 -89.0173 19.4288 -25.5882 3.76118 -1.31987 -9.58294 -19.0078 -4.75116 -0.198142 -0.457696 -86.0293 -52.0021 84.7356 -16.3855 4.07661 -10.8871 1.15002 2.99423 -16.6105 3.85336 -0.448577 -10.9793 22.5888 0.697242 -3.29619 -14.9532 1.30249 5.04884 
-73.2018 89.1041 74.1647 73.4049 53.3919 106.311 -175.489 48.0398 86.746 -39.3602 17.2365 -2.11548 57.6623 1.5701 8.72283 50.0339 -1.34048 4.33887 170.261 46.9845 91.2635 -69.7853 -14.7156 1.18754 63.7544 5.27086 16.9415 50.2499 -0.380323 13.3285 -0.514284 11.236 -90.1473 4.39911 -1.08755 -0.278314 -7.27145 -1.09873 -0.230181 -29.8091 -0.953633 -0.592317 -9.79642 -0.95362 -0.592315 98.7313 -55.9516 -87.1558 24.3107 -21.0451 15.0759 -0.111471 -7.52109 -17.4117 -9.18757 -0.421138 0.141464 -85.9214 -50.1255 84.6236 -18.4045 3.86041 -4.97452 -0.335431 -1.76085 -18.5953 1.34757 -0.366235 -12.9591 31.1754 0.883968 -3.01621 -13.128 1.59465 5.98181 
-70.7436 86.2769 70.4942 68.3737 54.0159 109.537 -176.305 53.739 83.4412 -50.9226 15.5322 -0.585339 60.9233 7.21863 13.8766 60.0788 -0.414951 9.49806 174.725 61.7596 86.3634 -62.131 -9.39654 0.898771 64.8815 4.72252 15.5434 48.7667 -0.494295 12.498 -0.572821 12.1964 -90.438 2.4744 -1.31463 -0.876908 -9.19614 -1.35197 -0.818205 -31.7323 -0.990326 -1.23146 -11.7196 -0.990338 -1.23147 98.1636 -56.0626 -87.9725 28.9189 -13.3566 26.0642 0.594674 -3.17586 -16.5331 -11.7344 -0.403173 -1.11296 -89.4092 -51.6005 79.6773 -18.683 2.61592 -1.49429 -2.5202 -8.24047 -12.2627 0.840782 -0.357425 -13.7749 37.221 0.516094 -3.05653 -10.6265 1.46351 7.46126 
-66.1743 81.3359 65.1695 66.3101 56.3278 108.225 -173.931 56.5776 75.8579 -65.0206 15.4198 0.160365 63.6149 14.8383 23.2732 62.7091 -0.411434 9.78587 -175.756 69.812 75.2951 -62.556 -12.078 -0.415738 64.1037 5.4016 15.75 50.0639 -1.17356 11.1702 -0.367473 12.6114 -90.8372 1.64007 -1.05408 -1.66081 -10.0315 -1.12612 -1.61282 -32.5591 -0.506304 -1.90074 -12.5465 -0.506295 -1.90073 96.4201 -59.0455 -90.2104 31.9622 -10.3798 24.8074 2.00595 1.19174 -10.7443 -6.26616 -0.0813153 -3.99918 -94.3151 -55.4383 73.505 -14.8218 5.0717 -14.055 -4.10194 -9.66857 -4.5336 3.40377 -0.520525 -12.8775 35.7751 -0.0792821 2.03968 -6.32013 -1.13914 6.33823 
-59.1525 76.716 57.9749 70.18 56.9036 106.118 -176.19 53.4676 76.6807 -77.7292 16.1722 1.7089 62.0299 20.8336 35.2602 69.3975 2.37448 16.3362 -176.766 70.1085 80.9037 -78.3058 -8.70479 -2.40162 67.3905 2.36442 12.4689 45.3217 -0.849511 10.3525 0.0498895 12.1325 -91.1396 2.5999 -0.346189 -2.22873 -9.07291 -0.443919 -2.21135 -31.5927 0.339456 -2.22977 -11.58 0.339461 -2.22976 91.9365 -61.5101 -96.0523 16.5592 -20.7461 -0.285923 3.48471 1.79763 -11.7542 0.366583 -0.0314649 -4.99839 -96.8113 -57.0084 70.4753 -7.461 3.72114 -37.7326 -4.73013 -8.91689 -5.16856 10.1159 -0.908046 -11.9524 35.854 0.926283 7.11815 -8.13491 -2.45349 2.27499 
-51.2362 74.6436 49.9274 75.9841 55.5848 105.002 177.036 47.5126 84.6322 -89.0965 13.955 3.28728 64.2803 20.1735 29.5361 77.8277 6.48911 23.7249 172.339 63.8439 97.0683 -86.394 -14.5208 -1.65876 63.2324 -5.70212 -6.13539 70.1361 -6.67815 7.1076 -0.287679 11.0299 -91.0792 4.79771 -1.01756 -2.09533 -6.87447 -1.10877 -2.04855 -29.3966 -0.340992 -2.30417 -9.38396 -0.34098 -2.30418 90.1583 -51.7745 -100.568 0.238548 -6.66299 -45.8303 0.826221 -0.22692 -18.7477 -5.58768 -0.134261 -2.66793 -95.8901 -48.157 69.1186 0.758932 -8.63804 -60.5633 -0.213903 0.490928 -13.436 20.6949 -0.94405 -8.63924 31.7227 1.85478 4.04266 -15.6821 -0.465987 4.84109 
-41.4342 78.4095 39.6608 75.701 50.9002 102.988 178.956 34.43 84.7575 -81.9364 15.9151 3.12135 63.283 16.3484 25.6146 82.3307 7.92353 25.7648 175.835 52.2018 95.4401 -83.9188 -15.5708 -1.93817 67.1683 -8.90947 -6.83965 76.8102 -7.90371 7.46475 -0.130904 9.48562 -90.6279 7.89838 -0.534972 -1.20927 -3.77299 -0.587679 -1.18458 -26.3038 -0.146841 -1.31413 -6.29122 -0.146846 -1.31414 95.7823 -27.4001 -95.9302 3.69345 17.1285 -72.8638 -7.40716 -5.71954 -32.808 -9.34813 -0.251087 -2.11141 -91.4728 -33.0248 71.2988 0.225863 -25.4198 -77.0551 13.4812 9.83499 -31.818 18.7715 -0.636469 -7.26505 30.1404 1.55741 -0.198554 -25.5866 0.152066 7.70669 
-26.4684 89.3702 24.0543 76.1158 46.7076 100.151 -177.646 12.218 88.6513 -52.6086 15.3542 2.48883 46.9727 -5.98737 0.667398 69.4867 -4.89042 0.318605 179.018 27.1728 88.6718 -60.0159 -21.4012 -2.16707 63.4702 2.61321 8.99017 59.1221 -2.2297 11.8618 0.0652868 7.65467 -89.9641 11.5645 0.146723 0.056433 -0.106477 0.149063 0.0499172 -22.6417 0.122992 0.0979267 -2.62902 0.122978 0.0979129 100.899 -13.7488 -85.6526 4.28042 30.3819 -77.3432 -9.79625 -5.5117 -39.1259 -8.05172 -0.0791951 -4.29427 -86.9743 -25.0491 77.4925 3.02114 -35.6722 -74.8209 21.396 9.67892 -48.7998 22.7674 -0.370693 -5.62632 4.66133 1.89379 -6.21313 -15.2985 1.93937 10.636 
-10.6195 102.767 9.00914 78.681 52.6381 97.7577 -178.904 14.3494 91.1171 -56.6312 15.2711 3.72543 35.8768 -13.3089 -7.59777 15.2359 1.36057 8.68401 177.076 -3.52799 84.6164 -17.5472 -16.215 -2.21494 30.2144 18.9031 30.5468 3.68443 5.43476 5.14908 -0.0729665 6.88484 -89.7763 13.1052 -0.0375018 0.443279 1.43423 -0.0179531 0.444499 -21.1001 -0.168993 0.411511 -1.0875 -0.168973 0.411516 104.827 -13.444 -74.5772 0.00966789 38.7242 -67.2781 -5.63122 0.141362 -34.2063 -8.55596 0.0052707 -5.57531 -84.1839 -27.6339 83.8989 10.7434 -37.3258 -61.0292 13.9175 4.79982 -41.4242 25.6414 -0.0865089 -4.35557 -21.8658 1.59382 -9.80613 -4.56313 1.1238 11.0267 
0.440015 113.194 -2.298 86.7211 50.7334 93.4411 -177.657 30.1432 92.8806 -64.0333 17.5151 1.89861 41.3036 -10.5689 -3.63296 12.4434 1.22962 8.47886 174.601 -0.798966 90.3352 -52.9607 -24.787 -1.69291 32.2932 18.4816 20.4305 -12.7492 9.79749 -0.856708 0.387773 8.06646 -89.9605 10.7443 0.791035 0.0268474 -0.926356 0.791434 -0.0079829 -23.4638 0.746385 0.263364 -3.45113 0.746372 0.263364 104.386 -11.2222 -75.6631 -22.6586 35.2052 -27.79 2.4487 18.0654 -22.1901 -7.41097 -0.00986053 -5.55606 -83.1143 -24.2852 85.3865 28.9604 -24.9397 -20.6041 4.308 -2.26232 -19.4092 19.0433 -0.33639 -5.61243 -19.4595 2.89868 -12.661 -2.9597 2.7246 13.9307 
10.9803 118.866 -13.2248 88.2328 42.7421 94.5571 -179.437 37.6354 96.2216 -44.9682 19.3692 2.22176 39.236 -12.0391 -5.46529 18.9298 1.05491 3.29773 179.065 16.4749 81.4926 -99.1623 -28.5232 -3.22808 39.018 14.2686 10.1293 -0.440325 7.45536 -7.04802 0.262711 9.12058 -89.7639 8.63117 0.628718 0.423254 -3.03967 0.646736 0.395172 -25.5751 0.472458 0.592639 -5.56242 0.47245 0.592644 101.107 -15.9664 -84.701 -25.6989 -0.565431 0.937029 3.10601 16.9875 -10.0371 -4.09794 -0.034395 -4.76436 -82.5243 -25.8605 86.9569 16.0926 -1.88602 16.4229 -0.868385 -3.35731 -2.1225 9.90525 -0.360079 -6.90414 -14.7556 6.26701 -18.7597 -3.50771 6.6653 22.3767 
20.9865 118.185 -25.0996 90.7433 34.8777 97.0941 -179.677 36.7215 102.275 -27.704 15.8895 3.54623 42.1484 -10.377 -3.01817 23.1868 0.596458 -3.05974 175.857 38.4817 85.4143 -110.464 -27.999 -2.71901 43.9063 10.5537 6.32645 20.0482 1.5856 -5.58427 0.538358 10.1887 -89.8499 6.49512 1.13919 0.254223 -5.17534 1.14928 0.203823 -27.7136 1.01011 0.584874 -7.70097 1.01011 0.584862 99.2734 -26.4448 -88.4687 -10.0229 -13.4922 22.7502 2.40162 4.2977 -4.49168 0.723907 -0.0214717 -4.57274 -80.1689 -35.3506 92.5876 -9.1799 -3.36771 35.8735 -1.33104 -5.03396 -0.00200126 3.35433 -0.320608 -8.96752 -7.85956 7.53781 -17.3497 -6.60844 8.25808 23.7121 
32.2151 109.813 -37.6684 95.3006 33.7838 97.8642 -173.533 32.2859 104.726 -16.7445 8.30542 1.03563 36.9343 -13.2631 -5.96706 29.6376 -0.54097 -6.1111 162.225 42.6319 94.9881 -77.1514 -27.468 3.09256 51.1259 10.4558 14.8117 31.7137 -0.490363 0.38265 0.558963 11.0269 -90.185 4.82119 1.04087 -0.376692 -6.84943 1.02327 -0.422145 -29.388 1.10596 -0.0464278 -9.37538 1.10597 -0.0464177 100.146 -34.2816 -86.1221 9.47631 -5.30563 42.9777 0.658048 9.77134 -1.28567 -1.90296 -0.0332448 -4.38749 -77.7182 -46.804 97.1042 -26.185 -8.4894 43.9709 -1.46996 -16.9313 -0.00257373 5.99389 -0.272425 -6.89651 -7.453 7.70899 -12.7624 -4.08888 8.65801 21.7471 
44.922 94.5916 -49.1119 101.354 39.8138 91.6448 -170.301 33.6225 100.343 -39.6247 15.2557 -1.14834 49.771 -3.52984 7.02437 37.9408 -1.76629 -4.01348 164.37 39.3736 93.4363 -39.5319 -21.9809 9.28517 44.7941 14.9429 21.8836 55.4614 -4.39126 5.61893 -0.560562 11.6548 -89.8293 3.56084 -1.05218 0.331336 -8.10998 -1.0366 0.377312 -30.6454 -1.10305 -0.000177647 -10.6327 -1.10303 -0.000173869 103.279 -48.9035 -80.2831 20.3028 5.24359 42.504 -2.09255 19.2185 0.377823 -0.16522 -0.0382686 -5.55432 -81.6719 -56.1227 91.4677 -24.4169 -5.44769 31.5218 -2.04764 -19.4305 -0.00327642 11.4827 -0.381411 -6.67395 4.75718 7.70823 -16.6716 -12.1953 8.93234 24.3866 
55.5951 77.4044 -57.675 104.991 54.2379 83.032 -175.555 47.1222 90.6885 -83.1893 23.0662 1.50416 60.9812 12.5329 25.5291 56.9665 -0.843068 7.11487 155.591 53.3947 94.4367 -67.4519 -25.0828 6.4607 55.524 5.43513 5.91396 33.0246 -0.11945 4.50392 -1.67064 11.2605 -90.088 4.35854 -3.37524 -0.127447 -7.30795 -3.37755 0.0213934 -29.8764 -3.18078 -1.13699 -9.86378 -3.18078 -1.137 107.249 -64.6632 -75.4822 20.5481 -0.035436 12.3258 0.314092 22.989 -1.89006 6.71428 -0.205151 -7.74655 -90.0818 -54.7379 79.3747 -6.89082 -1.20913 -15.7615 -2.87556 -11.6338 0.800612 10.677 -0.414676 -7.23219 16.273 2.62444 -14.3579 -16.7948 4.27731 20.4631 
61.957 67.3421 -63.5117 114.852 55.7686 75.1232 179.298 53.4518 92.6493 -109.131 22.3091 2.59884 59.0599 8.41328 20.161 68.6377 -0.0231828 11.1349 153.722 58.5674 101.582 -94.8852 -24.8308 0.659361 55.4458 -0.864953 -8.19519 56.2489 -5.26887 3.74131 -1.4446 11.7435 -90.4673 3.3714 -3.07182 -0.928039 -8.29617 -3.10969 -0.79183 -30.8517 -2.65085 -1.80882 -10.839 -2.65085 -1.80883 94.6608 -55.6881 -93.0836 5.68686 -6.29709 -28.6474 7.92752 20.3768 -25.0308 4.18413 -0.167876 -8.43468 -95.6667 -40.5555 66.8686 0.890552 -13.7888 -59.7952 3.64287 4.80158 -11.2537 15.2519 -0.674172 -8.13334 17.4015 1.24461 -7.30311 -16.8613 1.96826 12.1634 
65.3814 66.7813 -68.7954 108.632 49.8325 77.9581 -175.821 54.6143 89.2867 -114.161 21.3221 2.63368 56.8012 5.1823 17.046 67.3823 0.316092 11.9059 160.495 60.9838 98.7874 -101.221 -23.1651 -1.27236 57.3546 -0.863179 -4.88592 61.1976 -5.66538 5.35778 -0.804083 11.6739 -90.5146 3.51663 -1.81174 -1.01137 -8.15333 -1.8545 -0.930639 -30.6925 -1.42405 -1.50913 -10.6799 -1.42405 -1.50914 96.3538 -40.7807 -92.3755 10.571 7.36138 -52.4567 6.63528 12.7593 -43.2853 -1.02505 -0.015441 -7.63915 -92.9915 -35.7084 69.6115 -4.26775 -17.2029 -71.4388 11.9012 5.54074 -37.8222 26.0775 -0.553714 -6.44673 10.4726 2.54023 5.06895 -11.5638 0.796675 7.47911 
